<svg id="Layer_1" data-name="Layer 1" xmlns="http://www.w3.org/2000/svg" xmlns:xlink="http://www.w3.org/1999/xlink" viewBox="0 0 1000 1000"><defs><style>.cls-1{fill:none;}.cls-2{fill:#00dbff;}.cls-10,.cls-11,.cls-2,.cls-3,.cls-4,.cls-5,.cls-6,.cls-7,.cls-8,.cls-9{fill-rule:evenodd;}.cls-3{fill:#008cff;opacity:0.8;}.cls-4{fill:#00c3ff;}.cls-5{fill:#003dff;}.cls-6{fill:#00ffce;}.cls-7{fill:#00fff8;}.cls-8{fill:#0086ff;}.cls-9{fill:#00bdff;}.cls-10{fill:#03bde8;}.cls-11{fill:url(#linear-gradient);}</style><linearGradient id="linear-gradient" x1="707.77" y1="705.97" x2="276.73" y2="278.67" gradientUnits="userSpaceOnUse"><stop offset="0" stop-color="#00e7ff"/><stop offset="1" stop-color="#0043ff"/></linearGradient></defs><title>Logo</title><path class="cls-1" d="M886.35,941.22s0-.37,0-1.1"/><path class="cls-1" d="M886.71,59.15h-1.1"/><path class="cls-1" d="M940.85,941.22s0-.37,0-1.1"/><path class="cls-1" d="M941.22,59.15h-1.1"/><path class="cls-2" d="M628.05,87.86C587,94.78,544.21,103.37,501.47,114c-44.1-11-88.24-19.68-130.63-26.65,37.9-18.32,80.38-28.59,128.06-28.59C547,58.78,589.86,69.24,628.05,87.86Z"/><path class="cls-3" d="M629.16,912.63c-37.9,18.32-80.38,28.59-128.06,28.59-48.09,0-91-10.46-129.15-29.08,41.1-6.92,83.84-15.51,126.58-26.16C542.63,896.94,586.77,905.66,629.16,912.63Z"/><path class="cls-4" d="M940.12,59.16c0,8.22-.37,146.75-27.49,311.68-29.19-60.37-78.83-109-140-148.2C734,164,686.51,116.36,628.05,87.86,789.88,60.62,926.55,59.22,940.12,59.16Z"/><path class="cls-2" d="M114,498.53c-11,44.1-19.68,88.24-26.65,130.63-18.32-37.9-28.59-80.38-28.59-128.06,0-48.09,10.46-91,29.08-129.15C94.78,413.05,103.37,455.77,114,498.53Z"/><path class="cls-5" d="M940.84,940.12c-8.22,0-146.75-.37-311.68-27.49,60.37-29.19,109-78.83,148.2-140C836,734,883.63,686.51,912.14,628.05,939.38,789.88,940.78,926.55,940.84,940.12Z"/><path class="cls-6" d="M370.84,87.37c-60.37,29.19-109,78.83-148.2,140C164,266,116.37,313.49,87.86,372,60.62,210.12,59.22,73.45,59.15,59.88,67.23,59.88,205.82,60.24,370.84,87.37Z"/><path class="cls-4" d="M372,912.14c-161.83,27.24-298.5,28.64-312.07,28.71,0-8.08.36-146.67,27.49-311.69,29.19,60.37,78.83,109,140,148.2C266,836,313.49,883.63,372,912.14Z"/><path class="cls-3" d="M941.22,498.9c0,48.09-10.46,91-29.08,129.15C905.22,587,896.63,544.23,886,501.47c11-44.1,19.68-88.24,26.65-130.63C931,408.74,941.22,451.22,941.22,498.9Z"/><path class="cls-7" d="M222.64,227.33C172.64,305.26,138,401.84,114,498.53,103.37,455.77,94.78,413.05,87.86,372,116.37,313.49,164,266,222.64,227.33Z"/><path class="cls-8" d="M912.14,628.05C883.63,686.51,836,734,777.36,772.67c50-77.93,84.62-174.51,108.62-271.2C896.63,544.23,905.22,587,912.14,628.05Z"/><path class="cls-9" d="M227.33,777.36c-61.13-39.19-110.77-87.83-140-148.2,7-42.39,15.69-86.53,26.65-130.63C138.86,598.14,174.92,697.85,227.33,777.36Z"/><path class="cls-10" d="M498.53,886c-42.74,10.65-85.48,19.24-126.58,26.16C313.49,883.63,266,836,227.33,777.36,305.26,827.36,401.84,862,498.53,886Z"/><path class="cls-7" d="M501.47,114c-99.61,24.84-199.32,60.9-278.83,113.31,39.19-61.13,87.83-110.77,148.2-140C413.23,94.34,457.37,103.06,501.47,114Z"/><path class="cls-8" d="M777.36,772.67c-39.19,61.13-87.83,110.77-148.2,140-42.39-7-86.53-15.69-130.63-26.65C598.14,861.14,697.85,825.08,777.36,772.67Z"/><path class="cls-10" d="M912.63,370.84c-7,42.39-15.69,86.53-26.65,130.63-24.84-99.61-60.9-199.32-113.31-278.83C833.8,261.83,883.44,310.47,912.63,370.84Z"/><path class="cls-9" d="M772.67,222.64C694.74,172.64,598.16,138,501.47,114,544.21,103.37,587,94.78,628.05,87.86,686.51,116.36,734,164,772.67,222.64Z"/><path class="cls-11" d="M832.57,501.27C811.9,584.58,782.07,667.8,739,735c-68.5,45.15-154.41,76.22-240.25,97.62C415.42,811.9,332.2,782.07,265.05,739c-45.15-68.5-76.22-154.41-97.62-240.25C188.1,415.42,217.93,332.2,261,265.05c68.5-45.15,154.41-76.22,240.25-97.62C584.58,188.1,667.8,217.93,735,261,780.1,329.52,811.17,415.43,832.57,501.27Z"/></svg>